<mxfile host="app.diagrams.net" modified="2021-12-05T13:25:42.600Z" agent="5.0 (Windows NT 10.0; Win64; x64) AppleWebKit/537.36 (KHTML, like Gecko) Chrome/96.0.4664.45 Safari/537.36" etag="MAuz2VnD0vosYIxSW0Mc" version="15.9.1" type="github">
  <diagram id="LA_RDFWZDymFboUYb7V9" name="Page-1">
    <mxGraphModel dx="484" dy="1465" grid="1" gridSize="10" guides="1" tooltips="1" connect="1" arrows="1" fold="1" page="1" pageScale="1" pageWidth="827" pageHeight="1169" background="#114B5F" math="0" shadow="0">
      <root>
        <mxCell id="0" />
        <mxCell id="1" parent="0" />
        <mxCell id="tUmf_8rmVXMGghRwmbzl-27" style="edgeStyle=orthogonalEdgeStyle;curved=0;rounded=1;sketch=1;orthogonalLoop=1;jettySize=auto;html=1;entryX=0;entryY=0.5;entryDx=0;entryDy=0;fontColor=#E4FDE1;strokeColor=#028090;fillColor=#F45B69;" edge="1" parent="1" source="tUmf_8rmVXMGghRwmbzl-1" target="tUmf_8rmVXMGghRwmbzl-5">
          <mxGeometry relative="1" as="geometry" />
        </mxCell>
        <mxCell id="tUmf_8rmVXMGghRwmbzl-1" value="基础" style="rounded=1;whiteSpace=wrap;html=1;sketch=1;fillColor=#d5e8d4;strokeColor=#82b366;gradientColor=#97d077;" vertex="1" parent="1">
          <mxGeometry x="94" y="-830" width="130" height="60" as="geometry" />
        </mxCell>
        <mxCell id="tUmf_8rmVXMGghRwmbzl-22" value="" style="edgeStyle=orthogonalEdgeStyle;curved=0;rounded=1;sketch=1;orthogonalLoop=1;jettySize=auto;html=1;fontColor=#E4FDE1;strokeColor=#028090;fillColor=#F45B69;" edge="1" parent="1" source="tUmf_8rmVXMGghRwmbzl-5" target="tUmf_8rmVXMGghRwmbzl-21">
          <mxGeometry relative="1" as="geometry">
            <Array as="points">
              <mxPoint x="544" y="-800" />
              <mxPoint x="544" y="-890" />
            </Array>
          </mxGeometry>
        </mxCell>
        <mxCell id="tUmf_8rmVXMGghRwmbzl-24" value="" style="edgeStyle=orthogonalEdgeStyle;curved=0;rounded=1;sketch=1;orthogonalLoop=1;jettySize=auto;html=1;fontColor=#E4FDE1;strokeColor=#028090;fillColor=#F45B69;" edge="1" parent="1" source="tUmf_8rmVXMGghRwmbzl-5" target="tUmf_8rmVXMGghRwmbzl-23">
          <mxGeometry relative="1" as="geometry" />
        </mxCell>
        <mxCell id="tUmf_8rmVXMGghRwmbzl-26" value="" style="edgeStyle=orthogonalEdgeStyle;curved=0;rounded=1;sketch=1;orthogonalLoop=1;jettySize=auto;html=1;fontColor=#E4FDE1;strokeColor=#028090;fillColor=#F45B69;" edge="1" parent="1" source="tUmf_8rmVXMGghRwmbzl-5" target="tUmf_8rmVXMGghRwmbzl-25">
          <mxGeometry relative="1" as="geometry">
            <Array as="points">
              <mxPoint x="544" y="-800" />
            </Array>
          </mxGeometry>
        </mxCell>
        <mxCell id="tUmf_8rmVXMGghRwmbzl-5" value="看书" style="rounded=1;whiteSpace=wrap;html=1;sketch=1;fillColor=#d5e8d4;strokeColor=#82b366;gradientColor=#97d077;" vertex="1" parent="1">
          <mxGeometry x="314" y="-830" width="130" height="60" as="geometry" />
        </mxCell>
        <mxCell id="tUmf_8rmVXMGghRwmbzl-10" value="" style="edgeStyle=orthogonalEdgeStyle;curved=0;rounded=1;sketch=1;orthogonalLoop=1;jettySize=auto;html=1;fontColor=#E4FDE1;strokeColor=#028090;fillColor=#F45B69;" edge="1" parent="1" source="tUmf_8rmVXMGghRwmbzl-7" target="tUmf_8rmVXMGghRwmbzl-9">
          <mxGeometry relative="1" as="geometry" />
        </mxCell>
        <mxCell id="tUmf_8rmVXMGghRwmbzl-7" value="高级业务手段" style="rounded=1;whiteSpace=wrap;html=1;sketch=1;fillColor=#d5e8d4;strokeColor=#82b366;gradientColor=#97d077;" vertex="1" parent="1">
          <mxGeometry x="104" y="-650" width="130" height="60" as="geometry" />
        </mxCell>
        <mxCell id="tUmf_8rmVXMGghRwmbzl-12" value="" style="edgeStyle=orthogonalEdgeStyle;curved=0;rounded=1;sketch=1;orthogonalLoop=1;jettySize=auto;html=1;fontColor=#E4FDE1;strokeColor=#028090;fillColor=#F45B69;" edge="1" parent="1" source="tUmf_8rmVXMGghRwmbzl-9" target="tUmf_8rmVXMGghRwmbzl-11">
          <mxGeometry relative="1" as="geometry" />
        </mxCell>
        <mxCell id="tUmf_8rmVXMGghRwmbzl-14" value="" style="edgeStyle=orthogonalEdgeStyle;curved=0;rounded=1;sketch=1;orthogonalLoop=1;jettySize=auto;html=1;fontColor=#E4FDE1;strokeColor=#028090;fillColor=#F45B69;" edge="1" parent="1" source="tUmf_8rmVXMGghRwmbzl-9" target="tUmf_8rmVXMGghRwmbzl-13">
          <mxGeometry relative="1" as="geometry" />
        </mxCell>
        <mxCell id="tUmf_8rmVXMGghRwmbzl-15" value="" style="edgeStyle=orthogonalEdgeStyle;curved=0;rounded=1;sketch=1;orthogonalLoop=1;jettySize=auto;html=1;fontColor=#E4FDE1;strokeColor=#028090;fillColor=#F45B69;" edge="1" parent="1" source="tUmf_8rmVXMGghRwmbzl-9" target="tUmf_8rmVXMGghRwmbzl-13">
          <mxGeometry relative="1" as="geometry" />
        </mxCell>
        <mxCell id="tUmf_8rmVXMGghRwmbzl-16" value="" style="edgeStyle=orthogonalEdgeStyle;curved=0;rounded=1;sketch=1;orthogonalLoop=1;jettySize=auto;html=1;fontColor=#E4FDE1;strokeColor=#028090;fillColor=#F45B69;" edge="1" parent="1" source="tUmf_8rmVXMGghRwmbzl-9" target="tUmf_8rmVXMGghRwmbzl-13">
          <mxGeometry relative="1" as="geometry" />
        </mxCell>
        <mxCell id="tUmf_8rmVXMGghRwmbzl-18" value="" style="edgeStyle=orthogonalEdgeStyle;curved=0;rounded=1;sketch=1;orthogonalLoop=1;jettySize=auto;html=1;fontColor=#E4FDE1;strokeColor=#028090;fillColor=#F45B69;" edge="1" parent="1" source="tUmf_8rmVXMGghRwmbzl-9" target="tUmf_8rmVXMGghRwmbzl-17">
          <mxGeometry relative="1" as="geometry" />
        </mxCell>
        <mxCell id="tUmf_8rmVXMGghRwmbzl-9" value="脚手架" style="rounded=1;whiteSpace=wrap;html=1;sketch=1;fillColor=#d5e8d4;strokeColor=#82b366;gradientColor=#97d077;" vertex="1" parent="1">
          <mxGeometry x="314" y="-650" width="130" height="60" as="geometry" />
        </mxCell>
        <mxCell id="tUmf_8rmVXMGghRwmbzl-11" value="慕课网架构师的课程" style="whiteSpace=wrap;html=1;rounded=1;strokeColor=#82b366;fillColor=#d5e8d4;gradientColor=#97d077;sketch=1;" vertex="1" parent="1">
          <mxGeometry x="514" y="-650" width="120" height="60" as="geometry" />
        </mxCell>
        <mxCell id="tUmf_8rmVXMGghRwmbzl-13" value="lerna" style="ellipse;whiteSpace=wrap;html=1;rounded=1;strokeColor=#82b366;fillColor=#d5e8d4;gradientColor=#97d077;sketch=1;" vertex="1" parent="1">
          <mxGeometry x="224" y="-520" width="120" height="60" as="geometry" />
        </mxCell>
        <mxCell id="tUmf_8rmVXMGghRwmbzl-17" value="nodejs" style="ellipse;whiteSpace=wrap;html=1;rounded=1;strokeColor=#82b366;fillColor=#d5e8d4;gradientColor=#97d077;sketch=1;" vertex="1" parent="1">
          <mxGeometry x="414" y="-520" width="120" height="60" as="geometry" />
        </mxCell>
        <mxCell id="tUmf_8rmVXMGghRwmbzl-21" value="你不知道的js" style="ellipse;whiteSpace=wrap;html=1;rounded=1;strokeColor=#82b366;fillColor=#d5e8d4;gradientColor=#97d077;sketch=1;" vertex="1" parent="1">
          <mxGeometry x="614" y="-930" width="120" height="60" as="geometry" />
        </mxCell>
        <mxCell id="tUmf_8rmVXMGghRwmbzl-23" value="设计模式" style="ellipse;whiteSpace=wrap;html=1;rounded=1;strokeColor=#82b366;fillColor=#d5e8d4;gradientColor=#97d077;sketch=1;" vertex="1" parent="1">
          <mxGeometry x="614" y="-830" width="120" height="60" as="geometry" />
        </mxCell>
        <mxCell id="tUmf_8rmVXMGghRwmbzl-25" value="算法" style="ellipse;whiteSpace=wrap;html=1;rounded=1;strokeColor=#82b366;fillColor=#d5e8d4;gradientColor=#97d077;sketch=1;" vertex="1" parent="1">
          <mxGeometry x="614" y="-750" width="120" height="60" as="geometry" />
        </mxCell>
        <mxCell id="tUmf_8rmVXMGghRwmbzl-32" style="edgeStyle=orthogonalEdgeStyle;curved=0;rounded=1;sketch=1;orthogonalLoop=1;jettySize=auto;html=1;fontColor=#E4FDE1;strokeColor=#028090;fillColor=#F45B69;" edge="1" parent="1" source="tUmf_8rmVXMGghRwmbzl-28" target="tUmf_8rmVXMGghRwmbzl-29">
          <mxGeometry relative="1" as="geometry" />
        </mxCell>
        <mxCell id="tUmf_8rmVXMGghRwmbzl-28" value="java" style="rounded=1;whiteSpace=wrap;html=1;sketch=1;fillColor=#d5e8d4;strokeColor=#82b366;gradientColor=#97d077;" vertex="1" parent="1">
          <mxGeometry x="94" y="-1030" width="130" height="60" as="geometry" />
        </mxCell>
        <mxCell id="tUmf_8rmVXMGghRwmbzl-31" value="" style="edgeStyle=orthogonalEdgeStyle;curved=0;rounded=1;sketch=1;orthogonalLoop=1;jettySize=auto;html=1;fontColor=#E4FDE1;strokeColor=#028090;fillColor=#F45B69;" edge="1" parent="1" source="tUmf_8rmVXMGghRwmbzl-29" target="tUmf_8rmVXMGghRwmbzl-30">
          <mxGeometry relative="1" as="geometry" />
        </mxCell>
        <mxCell id="tUmf_8rmVXMGghRwmbzl-29" value="实际操作" style="rounded=1;whiteSpace=wrap;html=1;sketch=1;fillColor=#d5e8d4;strokeColor=#82b366;gradientColor=#97d077;" vertex="1" parent="1">
          <mxGeometry x="314" y="-1030" width="130" height="60" as="geometry" />
        </mxCell>
        <mxCell id="tUmf_8rmVXMGghRwmbzl-30" value="慕课网找一套课" style="whiteSpace=wrap;html=1;rounded=1;strokeColor=#82b366;fillColor=#d5e8d4;gradientColor=#97d077;sketch=1;" vertex="1" parent="1">
          <mxGeometry x="529" y="-1030" width="120" height="60" as="geometry" />
        </mxCell>
        <mxCell id="tUmf_8rmVXMGghRwmbzl-36" value="" style="edgeStyle=orthogonalEdgeStyle;curved=0;rounded=1;sketch=1;orthogonalLoop=1;jettySize=auto;html=1;fontColor=#E4FDE1;strokeColor=#028090;fillColor=#F45B69;" edge="1" parent="1" source="tUmf_8rmVXMGghRwmbzl-34" target="tUmf_8rmVXMGghRwmbzl-35">
          <mxGeometry relative="1" as="geometry" />
        </mxCell>
        <mxCell id="tUmf_8rmVXMGghRwmbzl-34" value="英语" style="rounded=1;whiteSpace=wrap;html=1;sketch=1;fillColor=#d5e8d4;strokeColor=#82b366;gradientColor=#97d077;" vertex="1" parent="1">
          <mxGeometry x="94" y="-370" width="130" height="60" as="geometry" />
        </mxCell>
        <mxCell id="tUmf_8rmVXMGghRwmbzl-35" value="听johnha" style="whiteSpace=wrap;html=1;rounded=1;strokeColor=#82b366;fillColor=#d5e8d4;gradientColor=#97d077;sketch=1;" vertex="1" parent="1">
          <mxGeometry x="309" y="-370" width="120" height="60" as="geometry" />
        </mxCell>
        <mxCell id="tUmf_8rmVXMGghRwmbzl-38" value="当前" style="rounded=1;whiteSpace=wrap;html=1;sketch=1;fillColor=#d5e8d4;strokeColor=#82b366;gradientColor=#97d077;" vertex="1" parent="1">
          <mxGeometry x="94" y="-220" width="130" height="60" as="geometry" />
        </mxCell>
        <mxCell id="tUmf_8rmVXMGghRwmbzl-42" value="java" style="rhombus;whiteSpace=wrap;html=1;rounded=1;strokeColor=#82b366;fillColor=#d5e8d4;gradientColor=#97d077;sketch=1;" vertex="1" parent="1">
          <mxGeometry x="229" y="100" width="80" height="80" as="geometry" />
        </mxCell>
        <mxCell id="tUmf_8rmVXMGghRwmbzl-44" value="基础" style="rhombus;whiteSpace=wrap;html=1;rounded=1;strokeColor=#82b366;fillColor=#d5e8d4;gradientColor=#97d077;sketch=1;" vertex="1" parent="1">
          <mxGeometry x="180" y="150" width="80" height="80" as="geometry" />
        </mxCell>
        <mxCell id="tUmf_8rmVXMGghRwmbzl-45" value="vue" style="rhombus;whiteSpace=wrap;html=1;rounded=1;strokeColor=#82b366;fillColor=#d5e8d4;gradientColor=#97d077;sketch=1;" vertex="1" parent="1">
          <mxGeometry x="329" y="100" width="80" height="80" as="geometry" />
        </mxCell>
        <mxCell id="tUmf_8rmVXMGghRwmbzl-46" value="nodejs" style="rhombus;whiteSpace=wrap;html=1;rounded=1;strokeColor=#82b366;fillColor=#d5e8d4;gradientColor=#97d077;sketch=1;direction=south;" vertex="1" parent="1">
          <mxGeometry x="229" y="200" width="80" height="80" as="geometry" />
        </mxCell>
        <mxCell id="tUmf_8rmVXMGghRwmbzl-48" value="uniapp" style="rhombus;whiteSpace=wrap;html=1;rounded=1;strokeColor=#82b366;fillColor=#d5e8d4;gradientColor=#97d077;sketch=1;" vertex="1" parent="1">
          <mxGeometry x="280" y="150" width="80" height="80" as="geometry" />
        </mxCell>
        <mxCell id="tUmf_8rmVXMGghRwmbzl-49" value="进阶开源" style="rhombus;whiteSpace=wrap;html=1;rounded=1;strokeColor=#82b366;fillColor=#d5e8d4;gradientColor=#97d077;sketch=1;" vertex="1" parent="1">
          <mxGeometry x="280" y="250" width="80" height="80" as="geometry" />
        </mxCell>
        <mxCell id="tUmf_8rmVXMGghRwmbzl-50" value="leetcode" style="rhombus;whiteSpace=wrap;html=1;rounded=1;strokeColor=#82b366;fillColor=#d5e8d4;gradientColor=#97d077;sketch=1;" vertex="1" parent="1">
          <mxGeometry x="380" y="150" width="80" height="80" as="geometry" />
        </mxCell>
        <mxCell id="tUmf_8rmVXMGghRwmbzl-52" value="英语" style="rhombus;whiteSpace=wrap;html=1;rounded=1;strokeColor=#82b366;fillColor=#d5e8d4;gradientColor=#97d077;sketch=1;" vertex="1" parent="1">
          <mxGeometry x="280" y="50" width="80" height="80" as="geometry" />
        </mxCell>
        <mxCell id="tUmf_8rmVXMGghRwmbzl-53" value="3d" style="rhombus;whiteSpace=wrap;html=1;rounded=1;strokeColor=#82b366;fillColor=#d5e8d4;gradientColor=#97d077;sketch=1;" vertex="1" parent="1">
          <mxGeometry x="329" y="200" width="80" height="80" as="geometry" />
        </mxCell>
        <mxCell id="tUmf_8rmVXMGghRwmbzl-56" value="强lee" style="text;html=1;align=center;verticalAlign=middle;resizable=0;points=[];autosize=1;strokeColor=none;fillColor=none;fontColor=#E4FDE1;" vertex="1" parent="1">
          <mxGeometry x="460" y="50" width="40" height="20" as="geometry" />
        </mxCell>
      </root>
    </mxGraphModel>
  </diagram>
</mxfile>
